<svg width="40" height="40" viewBox="0 0 40 40" fill="none" xmlns="http://www.w3.org/2000/svg">
<path fill-rule="evenodd" clip-rule="evenodd" d="M19.1673 4.33301C10.9696 4.33301 4.33398 10.9686 4.33398 19.1663C4.33398 27.3641 10.9696 33.9997 19.1673 33.9997C27.365 33.9997 34.0007 27.3641 34.0007 19.1663C34.0007 18.6141 34.4484 18.1663 35.0006 18.1663C35.5529 18.1663 36.0006 18.6141 36.0006 19.1663C36.0006 28.4686 28.4696 35.9997 19.1673 35.9997C9.86503 35.9997 2.33398 28.4686 2.33398 19.1663C2.33398 9.86406 9.86503 2.33301 19.1673 2.33301C19.7196 2.33301 20.1673 2.78072 20.1673 3.33301C20.1673 3.88529 19.7196 4.33301 19.1673 4.33301ZM22.334 8.33301C22.334 7.78072 22.7817 7.33301 23.334 7.33301H33.334C33.8863 7.33301 34.334 7.78072 34.334 8.33301C34.334 8.88529 33.8863 9.33301 33.334 9.33301H23.334C22.7817 9.33301 22.334 8.88529 22.334 8.33301ZM22.334 13.333C22.334 12.7807 22.7817 12.333 23.334 12.333H28.334C28.8863 12.333 29.334 12.7807 29.334 13.333C29.334 13.8853 28.8863 14.333 28.334 14.333H23.334C22.7817 14.333 22.334 13.8853 22.334 13.333ZM32.6269 34.0401C32.2364 33.6496 32.2364 33.0164 32.6269 32.6259C33.0174 32.2354 33.6506 32.2354 34.0411 32.6259L37.3744 35.9592C37.7649 36.3498 37.7649 36.9829 37.3744 37.3734C36.9839 37.764 36.3507 37.764 35.9602 37.3734L32.6269 34.0401Z" fill="url(#paint0_linear_82_1320)"/>
<defs>
<linearGradient id="paint0_linear_82_1320" x1="40.505" y1="43.6035" x2="-0.610934" y2="35.6354" gradientUnits="userSpaceOnUse">
<stop stop-color="#E5006D"/>
<stop offset="0.1671" stop-color="#C90171"/>
<stop offset="0.4658" stop-color="#961975"/>
<stop offset="0.714" stop-color="#6F1F78"/>
<stop offset="0.899" stop-color="#56207A"/>
<stop offset="1" stop-color="#4C217A"/>
</linearGradient>
</defs>
</svg>
