<svg width="36" height="36" viewBox="0 0 36 36" fill="none" xmlns="http://www.w3.org/2000/svg">
<path fill-rule="evenodd" clip-rule="evenodd" d="M19.4419 2.77611C19.2087 3.00759 19 3.52549 19 4.99968V6.26725H33.6667V4.99968C33.6667 3.52549 33.458 3.00759 33.2247 2.77611C32.9888 2.5419 32.459 2.33301 30.9667 2.33301H21.7C20.2076 2.33301 19.6779 2.5419 19.4419 2.77611ZM35.6667 4.99968C35.6667 3.54053 35.5087 2.2251 34.6336 1.35657C33.7612 0.490778 32.441 0.333008 30.9667 0.333008H21.7C20.2257 0.333008 18.9054 0.490778 18.0331 1.35657C17.158 2.2251 17 3.54053 17 4.99968V11.8497C17 13.3088 17.158 14.6243 18.0331 15.4928C18.9054 16.3586 20.2257 16.5163 21.7 16.5163H30.9667C32.4409 16.5163 33.7612 16.3586 34.6336 15.4928C35.5087 14.6243 35.6667 13.3088 35.6667 11.8497V4.99968ZM33.6667 8.26725H19V11.8497C19 13.3239 19.2087 13.8418 19.4419 14.0732C19.6779 14.3074 20.2076 14.5163 21.7 14.5163H30.9667C32.459 14.5163 32.9888 14.3074 33.2247 14.0732C33.458 13.8418 33.6667 13.3239 33.6667 11.8497V8.26725ZM11.1355 2.49531C6.12834 3.37482 2.33203 7.7383 2.33203 13.0003C2.33203 13.5526 1.88432 14.0003 1.33203 14.0003C0.779746 14.0003 0.332031 13.5526 0.332031 13.0003C0.332031 5.99804 5.99641 0.333659 12.9987 0.333659C13.359 0.333659 13.6914 0.52745 13.8689 0.840958C14.0464 1.15447 14.0415 1.53922 13.8562 1.84815L12.1062 4.76482C11.8221 5.2384 11.2078 5.39197 10.7342 5.10782C10.2606 4.82368 10.1071 4.20942 10.3912 3.73583L11.1355 2.49531ZM2.77527 21.9428C2.54204 22.1743 2.33333 22.6922 2.33333 24.1663V25.4339H17V24.1663C17 22.6922 16.7913 22.1743 16.5581 21.9428C16.3221 21.7086 15.7924 21.4997 14.3 21.4997H5.03334C3.54096 21.4997 3.01125 21.7086 2.77527 21.9428ZM19 24.1663C19 22.7072 18.842 21.3918 17.9669 20.5232C17.0946 19.6574 15.7743 19.4997 14.3 19.4997H5.03334C3.55905 19.4997 2.23875 19.6574 1.3664 20.5232C0.491296 21.3918 0.333333 22.7072 0.333333 24.1663V31.0163C0.333333 32.4755 0.491296 33.7909 1.3664 34.6594C2.23875 35.5252 3.55905 35.683 5.03334 35.683H14.3C15.7743 35.683 17.0946 35.5252 17.9669 34.6594C18.842 33.7909 19 32.4755 19 31.0163V24.1663ZM17 27.4339H2.33333V31.0163C2.33333 32.4905 2.54204 33.0084 2.77527 33.2399C3.01125 33.4741 3.54096 33.683 5.03334 33.683H14.3C15.7924 33.683 16.3221 33.4741 16.5581 33.2399C16.7913 33.0084 17 32.4905 17 31.0163V27.4339ZM34.6647 22.0007C35.217 22.0007 35.6647 22.4484 35.6647 23.0007C35.6647 30.0029 30.0003 35.6673 22.998 35.6673C22.6378 35.6673 22.3054 35.4735 22.1278 35.16C21.9503 34.8465 21.9552 34.4618 22.1406 34.1528L23.8905 31.2362C24.1747 30.7626 24.7889 30.609 25.2625 30.8932C25.7361 31.1773 25.8897 31.7916 25.6055 32.2651L24.8612 33.5057C29.8684 32.6262 33.6647 28.2627 33.6647 23.0007C33.6647 22.4484 34.1124 22.0007 34.6647 22.0007Z" fill="url(#paint0_linear_3142_529)"/>
<defs>
<linearGradient id="paint0_linear_3142_529" x1="38.5044" y1="41.623" x2="-2.61429" y2="33.6578" gradientUnits="userSpaceOnUse">
<stop stop-color="#E5006D"/>
<stop offset="0.1671" stop-color="#C90171"/>
<stop offset="0.4658" stop-color="#961975"/>
<stop offset="0.714" stop-color="#6F1F78"/>
<stop offset="0.899" stop-color="#56207A"/>
<stop offset="1" stop-color="#4C217A"/>
</linearGradient>
</defs>
</svg>
