<svg width="40" height="40" viewBox="0 0 40 40" fill="none" xmlns="http://www.w3.org/2000/svg">
<path fill-rule="evenodd" clip-rule="evenodd" d="M18.8164 4.5C14.7663 4.5 11.4831 7.78324 11.4831 11.8333C11.4831 15.8834 14.7663 19.1667 18.8164 19.1667C22.8665 19.1667 26.1497 15.8834 26.1497 11.8333C26.1497 7.78324 22.8665 4.5 18.8164 4.5ZM9.48307 11.8333C9.48307 6.67868 13.6617 2.5 18.8164 2.5C23.9711 2.5 28.1497 6.67868 28.1497 11.8333C28.1497 16.988 23.9711 21.1667 18.8164 21.1667C13.6617 21.1667 9.48307 16.988 9.48307 11.8333ZM18.8167 26.1667C11.2672 26.1667 5.5 31.1178 5.5 36.8333C5.5 37.3856 5.05228 37.8333 4.5 37.8333C3.94772 37.8333 3.5 37.3856 3.5 36.8333C3.5 29.6489 10.5662 24.1667 18.8167 24.1667C19.369 24.1667 19.8167 24.6144 19.8167 25.1667C19.8167 25.719 19.369 26.1667 18.8167 26.1667ZM29.1498 26.1667C26.7565 26.1667 24.8164 28.1068 24.8164 30.5C24.8164 32.8933 26.7565 34.8334 29.1498 34.8334C31.543 34.8334 33.4831 32.8933 33.4831 30.5C33.4831 28.1068 31.543 26.1667 29.1498 26.1667ZM22.8164 30.5C22.8164 27.0022 25.652 24.1667 29.1498 24.1667C32.6476 24.1667 35.4831 27.0022 35.4831 30.5C35.4831 31.9091 35.023 33.2107 34.2447 34.2627C34.3456 34.3105 34.4401 34.3761 34.5235 34.4596L36.1902 36.1262C36.5807 36.5168 36.5807 37.1499 36.1902 37.5404C35.7997 37.931 35.1665 37.931 34.776 37.5404L33.1093 35.8738C33.0259 35.7903 32.9603 35.6958 32.9125 35.595C31.8604 36.3732 30.5588 36.8334 29.1498 36.8334C25.652 36.8334 22.8164 33.9978 22.8164 30.5Z" fill="url(#paint0_linear_3142_475)"/>
<defs>
<linearGradient id="paint0_linear_3142_475" x1="39.132" y1="43.7705" x2="0.571458" y2="36.7947" gradientUnits="userSpaceOnUse">
<stop stop-color="#E5006D"/>
<stop offset="0.1671" stop-color="#C90171"/>
<stop offset="0.4658" stop-color="#961975"/>
<stop offset="0.714" stop-color="#6F1F78"/>
<stop offset="0.899" stop-color="#56207A"/>
<stop offset="1" stop-color="#4C217A"/>
</linearGradient>
</defs>
</svg>
