<svg width="40" height="40" viewBox="0 0 40 40" fill="none" xmlns="http://www.w3.org/2000/svg">
<path fill-rule="evenodd" clip-rule="evenodd" d="M3.33398 2.33301C3.88627 2.33301 4.33398 2.78072 4.33398 3.33301V31.6663C4.33398 33.8807 6.1196 35.6663 8.33398 35.6663H36.6673C37.2196 35.6663 37.6673 36.1141 37.6673 36.6663C37.6673 37.2186 37.2196 37.6663 36.6673 37.6663H8.33398C5.01503 37.6663 2.33398 34.9853 2.33398 31.6663V3.33301C2.33398 2.78072 2.7817 2.33301 3.33398 2.33301ZM35.6512 10.9075C36.0706 11.2668 36.1194 11.8981 35.7601 12.3176L28.0934 21.2675L28.0908 21.2706C26.4455 23.1757 23.5222 23.2861 21.7435 21.5075L20.1559 19.9198C19.2083 18.9607 17.6357 19.0195 16.7421 20.0525C16.7417 20.053 16.7412 20.0535 16.7408 20.054L9.09354 28.9841C8.73431 29.4036 8.10303 29.4524 7.68354 29.0932C7.26405 28.734 7.2152 28.1027 7.57443 27.6832L15.2272 18.7467C16.8665 16.8485 19.7911 16.7073 21.5765 18.512C21.5773 18.5127 21.578 18.5135 21.5787 18.5142L23.1578 20.0932C24.1119 21.0474 25.6876 20.9916 26.5759 19.9649C26.5763 19.9644 26.5767 19.9639 26.5772 19.9634L34.2412 11.0164C34.6005 10.597 35.2318 10.5482 35.6512 10.9075Z" fill="url(#paint0_linear_3142_585)"/>
<defs>
<linearGradient id="paint0_linear_3142_585" x1="40.505" y1="43.6035" x2="-0.610934" y2="35.6354" gradientUnits="userSpaceOnUse">
<stop stop-color="#E5006D"/>
<stop offset="0.1671" stop-color="#C90171"/>
<stop offset="0.4658" stop-color="#961975"/>
<stop offset="0.714" stop-color="#6F1F78"/>
<stop offset="0.899" stop-color="#56207A"/>
<stop offset="1" stop-color="#4C217A"/>
</linearGradient>
</defs>
</svg>
